# xmcd
#
# Track frame offsets:
#	150
#	20836
#	44433
#	63605
#	83618
#	101517
#	123790
#	143838
#	164341
#	184678
#	208274
#	235526
#	254640
#
# Disc length: 3623 seconds
#
# Revision: 2
# Processed by: cddbd v1.5.2PL0 Copyright (c) Steve Scherf et al.
# Submitted via: audiograbber 1.83.01
#
DISCID=b40e250d
DTITLE=Roy, Kopfermann and Worship Academy Choir - Es gibt einen Ort zum Beten Vo
DTITLE=l. 3
DYEAR=2007
DGENRE=Christian Rock
TTITLE0=Wir hörn den Ruf
TTITLE1=Ich weiß
TTITLE2=Wir schauen auf dich
TTITLE3=Ich glaube an dich
TTITLE4=Dies ist ein Tag
TTITLE5=Wir bringen dir unsern Dank
TTITLE6=Lebensquell
TTITLE7=So gewiss
TTITLE8=Immer wieder neu
TTITLE9=Wenn ihr in mir bleibt
TTITLE10=Herr des Heiligsten
TTITLE11=Weil ich dir wertvoll bin
TTITLE12=Unschätzbarer Jesus
EXTD=www.gerth.de - Art.-Nr. 946356
EXTT0=
EXTT1=
EXTT2=
EXTT3=
EXTT4=
EXTT5=
EXTT6=
EXTT7=
EXTT8=
EXTT9=
EXTT10=
EXTT11=
EXTT12=
PLAYORDER=
